<svg width="48" height="47" viewBox="0 0 48 47" fill="none" xmlns="http://www.w3.org/2000/svg">
<path fill-rule="evenodd" clip-rule="evenodd" d="M9.29943 0.0466973C5.39361 0.465019 2.43033 4.26724 3.09299 8.01005C3.37504 9.60255 4.03516 10.8665 5.14689 11.9418C8.42247 15.1107 13.8451 14.5294 16.3587 10.7397C17.1873 9.49074 17.5022 8.27503 17.4266 6.61577C17.2417 2.55155 13.5761 -0.411231 9.29943 0.0466973ZM36.8247 0.0477482C35.4313 0.196886 33.9402 0.89999 32.7946 1.94816C28.457 5.91704 30.7074 12.8913 36.6528 13.9044C38.7822 14.2674 41.0713 13.5834 42.7564 12.0808C45.4955 9.63812 45.7617 5.41881 43.3614 2.48705C42.7422 1.73067 41.1033 0.617136 40.2286 0.358292C39.2161 0.0587895 37.8694 -0.0640613 36.8247 0.0477482Z" fill="white"/>
<path fill-rule="evenodd" clip-rule="evenodd" d="M47.1651 46.4145C47.9339 46.2012 48.0735 45.804 47.9699 44.1251C47.4919 36.3823 43.1898 29.4854 36.2571 25.3478C28.902 20.9579 19.0913 20.8783 11.9192 25.1502C4.94121 29.3064 0.532369 36.3821 0.0396196 44.2157C-0.0349959 45.4021 -0.01408 45.6461 0.187771 45.9445C0.67094 46.6584 1.97554 46.6233 2.46451 45.8831C2.58109 45.7066 2.70306 45.0831 2.75406 44.4023C3.22158 38.1576 6.10454 32.7854 10.9823 29.0689C14.5466 26.3533 18.7656 24.8711 23.5596 24.6506C27.0758 24.4888 30.3684 25.2183 33.6951 26.8961C35.6344 27.8742 37.0558 28.8899 38.7206 30.4877C42.6834 34.2907 44.7893 38.7659 45.2659 44.3972C45.3708 45.6382 45.4821 45.96 45.8929 46.2111C46.3511 46.4909 46.6926 46.5456 47.1651 46.4145Z" fill="white"/>
</svg>
