<svg width="20" height="20" viewBox="0 0 20 20" fill="none" xmlns="http://www.w3.org/2000/svg">
<path fill-rule="evenodd" clip-rule="evenodd" d="M9.0978 0.0236656C7.16631 0.212879 5.38115 0.924853 3.81595 2.13021C3.05374 2.71717 2.06389 3.82029 1.49187 4.72015C1.24483 5.10879 0.763934 6.09359 0.591662 6.56357C0.399045 7.08911 0.193752 7.8922 0.0927285 8.51536C-0.0309095 9.27808 -0.0309095 10.7262 0.0927285 11.4889C0.267543 12.5672 0.544085 13.4388 1.01743 14.4038C1.5346 15.4581 2.07234 16.2054 2.93347 17.0665C3.79463 17.9277 4.54193 18.4654 5.59618 18.9826C6.56118 19.4559 7.43283 19.7325 8.51106 19.9073C9.27379 20.0309 10.7219 20.0309 11.4846 19.9073C12.5629 19.7325 13.4345 19.4559 14.3995 18.9826C15.4538 18.4654 16.2011 17.9277 17.0622 17.0665C17.9234 16.2054 18.4611 15.4581 18.9783 14.4038C19.3218 13.7035 19.4945 13.2446 19.6796 12.5408C19.9261 11.6036 19.9886 11.0899 19.9886 10.0021C19.9886 8.91445 19.9261 8.40069 19.6796 7.46346C19.4945 6.75971 19.3218 6.30076 18.9783 5.60048C18.4611 4.54623 17.9234 3.79893 17.0622 2.93777C16.2011 2.07664 15.4538 1.5389 14.3995 1.02173C13.4355 0.548814 12.5466 0.266677 11.5042 0.1027C10.9291 0.0122408 9.64489 -0.0299369 9.0978 0.0236656ZM10.9286 1.59281C12.8365 1.80296 14.583 2.64878 15.9671 4.0329C17.5911 5.65686 18.4491 7.72036 18.4491 10.0021C18.4491 12.2839 17.5911 14.3474 15.9671 15.9714C14.3431 17.5954 12.2796 18.4534 9.99785 18.4534C7.71606 18.4534 5.65256 17.5954 4.0286 15.9714C2.40464 14.3474 1.54665 12.2839 1.54665 10.0021C1.54665 7.72036 2.40464 5.65686 4.0286 4.0329C5.39374 2.66776 7.15848 1.80554 9.0197 1.59438C9.45032 1.54555 10.4917 1.54469 10.9286 1.59281ZM9.66074 4.71674C9.47282 4.80208 9.31976 4.98836 9.2561 5.20922C9.22363 5.32198 9.21435 6.04918 9.22296 7.8111C9.23458 10.1929 9.23701 10.2605 9.31565 10.413C9.38107 10.5398 9.69306 10.7945 10.9589 11.7548C11.8183 12.4066 12.6 12.9871 12.696 13.0447C13.3502 13.4369 14.1235 12.7388 13.7924 12.0549C13.7131 11.8911 13.5558 11.7613 12.2423 10.776L10.7804 9.67944V7.49907C10.7804 5.97312 10.767 5.27879 10.7358 5.18571C10.6249 4.85435 10.338 4.64362 9.99785 4.64362C9.90101 4.64362 9.74932 4.67652 9.66074 4.71674Z" fill="#9697E7"/>
</svg>
