<svg width="48" height="49" viewBox="0 0 48 49" fill="none" xmlns="http://www.w3.org/2000/svg">
<path d="M3.5 2L15.5123 8.43519C16.2768 8.84473 16.1932 9.96671 15.3765 10.2584L3.5 14.5" stroke="white" stroke-width="3" stroke-linecap="round"/>
<path d="M45 2L32.9877 8.43519C32.2232 8.84473 32.3068 9.96671 33.1235 10.2584L45 14.5" stroke="white" stroke-width="3" stroke-linecap="round"/>
<path fill-rule="evenodd" clip-rule="evenodd" d="M0.834923 24.0677C0.0661148 24.2811 -0.0735331 24.6783 0.0300901 26.3572C0.508133 34.1 4.81025 40.9968 11.7429 45.1345C19.098 49.5243 28.9087 49.6039 36.0808 45.332C43.0588 41.1758 47.4676 34.1001 47.9604 26.2665C48.035 25.0802 48.0141 24.8361 47.8122 24.5377C47.3291 23.8238 46.0245 23.8589 45.5355 24.5991C45.4189 24.7756 45.2969 25.3991 45.2459 26.0799C44.7784 32.3247 41.8955 37.6969 37.0177 41.4133C33.4534 44.129 29.2344 45.6111 24.4404 45.8316C20.9242 45.9934 17.6316 45.264 14.3049 43.5861C12.3656 42.608 10.9443 41.5923 9.2794 39.9946C5.31662 36.1915 3.2107 31.7163 2.73414 26.085C2.62917 24.8441 2.51785 24.5223 2.10714 24.2712C1.64893 23.9913 1.30743 23.9367 0.834923 24.0677Z" fill="white"/>
</svg>
