<svg width="375" height="340" viewBox="0 0 375 340" fill="none" xmlns="http://www.w3.org/2000/svg">
<g filter="url(#filter0_bdii_141:2)">
<rect x="20" y="115" width="335" height="158" rx="18" fill="#F7F7F7" fill-opacity="0.6"/>
</g>
<path d="M123.691 45.3783C123.691 45.3783 102.637 44.3471 113.806 108.575C113.806 108.575 121.32 130.377 111.834 144.429H251.471V45.3783H123.691Z" fill="#AFCDFB"/>
<path d="M138.033 212.363C138.033 212.363 128.277 200.973 137.431 193.738C137.431 193.738 144.118 189.686 149.569 190.014C149.569 190.014 141.844 202.981 144.344 204.27C146.844 205.559 151.911 189.202 151.911 189.202C151.911 189.202 167.127 187.718 172.021 190.081C172.021 190.081 159.014 200.733 161.754 201.368C164.494 202.002 178.543 191.538 178.543 191.538C178.543 191.538 192.705 193.949 191.949 202.597C191.193 211.245 186.315 213.91 184.167 213.684C182.019 213.457 169.475 208.66 169.203 210.42C168.93 212.18 176.481 217.925 181.769 218.194C181.769 218.194 171.786 229.215 165.15 226.035C158.515 222.854 157.948 217.812 153.811 215.92C149.673 214.029 146.145 214.034 147.852 215.963C149.558 217.892 157.046 219.766 159.41 223.954C161.774 228.142 163.898 230.966 157.033 229.933C150.168 228.9 139.009 223.871 138.518 218.114L138.033 212.363Z" fill="#599DAD"/>
<path d="M184.992 202.836C184.992 202.836 146.527 201.353 138.033 212.363C138.033 212.363 136.154 217.995 130.373 223.119L129.472 225.577C129.472 225.577 136.143 218.542 138.522 218.118C138.522 218.121 134.794 204.481 184.992 202.836Z" fill="#599DAD"/>
<path d="M130.373 223.123C130.373 223.123 122.118 229.234 121.544 240.152L123.043 240.287C123.043 240.287 125.68 228.996 130.445 224.581C135.211 220.165 130.373 223.123 130.373 223.123Z" fill="#AFB0F4"/>
<path d="M103.926 198.039C103.926 198.039 119.443 189.341 112.201 177.537C112.201 177.537 106.407 170.287 100.202 168.423C100.202 168.423 103.511 186.027 100.202 186.44C96.8924 186.854 97.9245 166.561 97.9245 166.561C97.9245 166.561 81.5799 158.691 75.1687 159.312C75.1687 159.312 85.308 176.5 81.9968 176.086C78.6856 175.673 67.3068 158.283 67.3068 158.283C67.3068 158.283 50.5471 155.176 47.8511 165.117C45.1551 175.057 49.5058 180.027 51.9887 180.649C54.4716 181.27 70.4049 181.062 69.9898 183.134C69.5748 185.205 58.8167 188.512 52.8169 186.657C52.8169 186.657 59.4374 203.018 68.1276 202.189C76.8179 201.36 79.5083 195.976 84.8873 195.563C90.2664 195.149 94.1983 196.598 91.5097 198.048C88.8211 199.498 79.7158 198.523 75.3707 202.219C71.0256 205.915 67.5069 208.194 75.5764 209.852C83.6459 211.51 98.1302 210.473 101.026 204.261L103.926 198.039Z" fill="#9697E7"/>
<path d="M55.5094 168.218C55.5094 168.218 98.9605 182.299 103.926 198.039C103.926 198.039 103.719 205.086 108.064 213.155V216.261C108.064 216.261 103.511 205.69 101.023 204.251C101.028 204.251 110.745 190.583 55.5094 168.218Z" fill="#AFB0F4"/>
<path d="M108.064 213.155C108.064 213.155 114.764 223.34 110.945 235.738L109.22 235.274C109.22 235.274 110.888 221.619 107.388 214.752C103.887 207.884 108.064 213.155 108.064 213.155Z" fill="#9697E7"/>
<path d="M128.613 186.043C128.613 186.043 108.151 174.577 117.705 159.017C117.705 159.017 125.34 149.463 133.523 147.007C133.523 147.007 129.159 170.209 133.523 170.756C137.887 171.304 136.523 144.55 136.523 144.55C136.523 144.55 158.07 134.176 166.518 134.995C166.518 134.995 153.153 157.652 157.516 157.107C161.88 156.562 176.894 133.63 176.894 133.63C176.894 133.63 198.987 129.536 202.533 142.638C206.08 155.74 200.35 162.296 197.078 163.112C193.806 163.928 172.805 163.668 173.35 166.389C173.894 169.11 188.077 173.486 195.987 171.025C195.987 171.025 187.26 192.59 175.803 191.5C164.346 190.409 160.794 183.31 153.712 182.763C146.631 182.216 141.439 184.128 144.983 186.04C148.528 187.952 160.529 186.665 166.259 191.538C171.988 196.412 176.622 199.415 165.984 201.599C155.347 203.784 136.256 202.417 132.446 194.229L128.613 186.043Z" fill="#AFB0F4"/>
<path d="M192.435 146.733C192.435 146.733 135.159 165.297 128.613 186.049C128.613 186.049 128.887 195.322 123.16 205.976V210.071C123.16 210.071 129.159 196.149 132.424 194.239C132.424 194.233 119.613 176.216 192.435 146.733Z" fill="#9697E7"/>
<path d="M123.16 205.97C123.16 205.97 114.325 219.396 119.361 235.738L121.633 235.126C121.633 235.126 119.428 217.137 124.042 208.074C128.655 199.01 123.16 205.97 123.16 205.97Z" fill="#9697E7"/>
<path d="M127.923 271.176C150.055 271.176 168 253.221 168 231.074H87.8539C87.8539 253.221 105.794 271.176 127.923 271.176Z" fill="#EFCBAB"/>
<path d="M137.785 270.868C136.133 271.074 134.47 271.177 132.806 271.176C110.676 271.176 92.7383 253.219 92.7383 231.07H102.692C102.692 251.533 118.003 268.415 137.785 270.868Z" fill="#FFEBDC"/>
<path d="M168.556 273.216H87.3018C87.3018 271.904 87.8226 270.645 88.7497 269.717C89.6768 268.79 90.9342 268.268 92.2454 268.268H163.603C164.253 268.267 164.897 268.394 165.498 268.642C166.099 268.89 166.645 269.255 167.105 269.714C167.565 270.174 167.93 270.72 168.179 271.321C168.428 271.921 168.556 272.566 168.556 273.216Z" fill="#EFCBAB"/>
<path d="M168.905 231.07H86.5365V232.299H168.905V231.07Z" fill="#EFCDAF"/>
<path d="M272.918 78.5838C272.918 78.5838 265.899 65.3275 276.417 60.2795C276.417 60.2795 283.828 57.7962 289.076 59.3133C289.076 59.3133 278.699 70.2662 280.851 72.0725C283.002 73.8788 291.538 59.0351 291.538 59.0351C291.538 59.0351 306.706 60.936 310.966 64.3094C310.966 64.3094 295.939 71.8463 298.472 73.0665C301.005 74.2868 317.001 67.1728 317.001 67.1728C317.001 67.1728 330.289 72.6363 327.656 80.8964C325.023 89.1566 319.677 90.6995 317.635 90.0041C315.593 89.3086 304.403 81.8756 303.751 83.5317C303.099 85.1878 309.206 92.4558 314.313 93.8782C314.313 93.8782 302.154 102.437 296.378 97.8766C290.603 93.3163 291.155 88.2719 287.534 85.5198C283.914 82.7677 280.467 81.9962 281.71 84.2513C282.954 86.5064 289.847 89.9818 291.236 94.5867C292.626 99.1915 294.077 102.413 287.605 99.8962C281.132 97.3796 271.349 90.0226 272.135 84.2995L272.918 78.5838Z" fill="#9697E7"/>
<path d="M320.82 79.6057C320.82 79.6057 283.621 69.708 272.918 78.5838C272.918 78.5838 269.852 83.6653 263.087 87.3966L261.669 89.598C261.669 89.598 269.715 84.1938 272.135 84.3088C272.135 84.3088 271.486 70.1809 320.82 79.6057Z" fill="#AFB0F4"/>
<path d="M263.087 87.3966C263.087 87.3966 253.693 91.5453 250.739 102.072L252.171 102.532C252.171 102.532 257.219 92.096 262.837 88.8358C268.455 85.5755 263.087 87.3966 263.087 87.3966Z" fill="#599DAD"/>
<path d="M226.701 54.6732C226.701 54.6732 205.913 43.8223 214.992 27.9845C214.992 27.9845 222.341 18.2073 230.448 15.5071C230.448 15.5071 226.775 38.8317 231.154 39.2453C235.532 39.6588 233.377 12.9608 233.377 12.9608C233.377 12.9608 254.606 1.95042 263.081 2.51605C263.081 2.51605 250.396 25.5625 254.743 24.8874C259.09 24.2123 273.397 0.845111 273.397 0.845111C273.397 0.845111 295.357 -3.89695 299.291 9.08484C303.225 22.0666 297.694 28.7949 294.448 29.7111C291.201 30.6272 270.2 30.9796 270.826 33.6928C271.453 36.406 285.759 40.3487 293.592 37.6559C293.592 37.6559 285.509 59.4728 274.026 58.7235C262.544 57.9743 258.79 50.9845 251.684 50.6488C244.578 50.3132 239.455 52.3791 243.059 54.1836C246.663 55.9881 258.623 54.3468 264.486 59.0481C270.348 63.7493 275.081 66.6109 264.514 69.1108C253.946 71.6107 234.822 70.8151 230.761 62.7442L226.701 54.6732Z" fill="#AFB0F4"/>
<path d="M289.326 13.4801C289.326 13.4801 232.626 33.741 226.697 54.6732C226.697 54.6732 227.253 63.9459 221.837 74.7542L221.959 78.8472C221.959 78.8472 227.542 64.7527 230.757 62.7461C230.761 62.7461 217.412 45.1186 289.326 13.4801Z" fill="#9697E7"/>
<path d="M221.841 74.7542C221.841 74.7542 213.412 88.437 218.932 104.612L221.179 103.943C221.179 103.943 218.439 86.0168 222.788 76.8313C227.136 67.6457 221.841 74.7542 221.841 74.7542Z" fill="#6BB7BF"/>
<path d="M278.329 83.3945H132.545V273.684H278.329V83.3945Z" fill="#9ABCEF"/>
<path d="M280.647 83.3945H137.312V273.684H280.647V83.3945Z" fill="#E9F3FE"/>
<path d="M280.647 83.3927H137.31C138.103 72.5436 136.91 64.6618 134.996 59.0017C131.32 48.1081 124.99 45.3764 124.99 45.3764H260.168C271.705 45.3764 280.651 52.3328 283.087 61.5665C283.176 61.9133 283.261 62.2601 283.336 62.6051C285.641 73.1723 280.741 83.1998 280.647 83.3927Z" fill="#E9F3FE"/>
<path d="M280.647 83.3927H137.31C138.103 72.5436 136.91 64.6618 134.996 59.0017C149.634 61.6852 185.924 67.4065 224.755 66.4421C249.877 65.819 269.73 64.1369 283.33 62.6051C285.641 73.1723 280.741 83.1998 280.647 83.3927Z" fill="#D8E8FD"/>
<path d="M242.782 123.705H166.772C165.988 123.705 165.353 124.341 165.353 125.125V125.852C165.353 126.637 165.988 127.273 166.772 127.273H242.782C243.566 127.273 244.202 126.637 244.202 125.852V125.125C244.202 124.341 243.566 123.705 242.782 123.705Z" fill="#BBD5FC"/>
<path d="M213.366 129.708H166.472C165.854 129.708 165.353 130.21 165.353 130.828V132.156C165.353 132.775 165.854 133.276 166.472 133.276H213.366C213.984 133.276 214.485 132.775 214.485 132.156V130.828C214.485 130.21 213.984 129.708 213.366 129.708Z" fill="#BBD5FC"/>
<path d="M242.782 161.285H166.772C165.988 161.285 165.353 161.921 165.353 162.706V163.433C165.353 164.217 165.988 164.853 166.772 164.853H242.782C243.566 164.853 244.202 164.217 244.202 163.433V162.706C244.202 161.921 243.566 161.285 242.782 161.285Z" fill="#D2E4FD"/>
<path d="M213.366 167.29H166.472C165.854 167.29 165.353 167.792 165.353 168.41V169.738C165.353 170.357 165.854 170.858 166.472 170.858H213.366C213.984 170.858 214.485 170.357 214.485 169.738V168.41C214.485 167.792 213.984 167.29 213.366 167.29Z" fill="#D2E4FD"/>
<path d="M242.782 192.636H166.772C165.988 192.636 165.353 193.272 165.353 194.057V194.784C165.353 195.568 165.988 196.204 166.772 196.204H242.782C243.566 196.204 244.202 195.568 244.202 194.784V194.057C244.202 193.272 243.566 192.636 242.782 192.636Z" fill="#D2E4FD"/>
<path d="M213.366 198.639H166.472C165.854 198.639 165.353 199.141 165.353 199.76V201.088C165.353 201.706 165.854 202.208 166.472 202.208H213.366C213.984 202.208 214.485 201.706 214.485 201.088V199.76C214.485 199.141 213.984 198.639 213.366 198.639Z" fill="#D2E4FD"/>
<path d="M186.578 91.8883H233.929C234.322 91.8883 234.699 92.0446 234.977 92.3229C235.255 92.6011 235.412 92.9785 235.412 93.372V94.5681C235.412 94.763 235.373 94.9559 235.299 95.1359C235.224 95.3159 235.115 95.4795 234.977 95.6172C234.84 95.755 234.676 95.8643 234.497 95.9389C234.317 96.0134 234.124 96.0518 233.929 96.0518H186.578C186.185 96.0518 185.808 95.8955 185.53 95.6172C185.252 95.339 185.095 94.9616 185.095 94.5681V93.372C185.095 93.1771 185.134 92.9842 185.208 92.8042C185.283 92.6242 185.392 92.4606 185.53 92.3229C185.667 92.1851 185.831 92.0758 186.011 92.0013C186.19 91.9267 186.383 91.8883 186.578 91.8883Z" fill="#BBD5FC"/>
<path d="M174.23 98.2883H246.277C246.756 98.2883 247.216 98.4789 247.555 98.818C247.893 99.1571 248.084 99.617 248.084 100.097V100.623C248.084 101.103 247.893 101.564 247.554 101.903C247.215 102.243 246.755 102.433 246.275 102.433H174.23C173.75 102.433 173.29 102.243 172.951 101.903C172.612 101.564 172.421 101.103 172.421 100.623V100.097C172.421 99.8589 172.468 99.6236 172.559 99.4041C172.65 99.1846 172.783 98.9852 172.951 98.8173C173.119 98.6494 173.319 98.5162 173.538 98.4255C173.757 98.3347 173.992 98.2881 174.23 98.2883Z" fill="#BBD5FC"/>
<path d="M204.699 146.516C189.085 146.516 174.267 144.554 163.222 141.751C152.065 138.92 146.051 134.291 146.051 130.186C146.051 126.466 150.95 123.045 160.218 120.291C151.335 122.93 146.584 126.804 146.584 130.186C146.584 133.942 152.741 137.657 163.477 140.386C174.486 143.168 189.124 144.711 204.699 144.711C220.275 144.711 234.913 143.168 245.919 140.386C256.655 137.662 262.813 133.947 262.813 130.186C262.813 126.212 256.327 121.272 245.892 117.294C234.033 112.77 219.395 111.094 204.699 111.094C177.109 111.094 165.751 114.317 155.897 118.356C165.793 114.299 177.02 109.701 204.699 109.701C219.454 109.701 234.146 112.203 246.069 116.748C256.728 120.812 263.348 125.96 263.348 130.188C263.348 134.294 257.202 138.115 246.042 140.945C234.996 143.747 220.314 146.516 204.699 146.516Z" fill="#C65447"/>
<path d="M299.519 183.152C299.519 183.152 299.004 188.159 298.441 189.102C297.877 190.044 295.476 193.072 294.451 193.666C293.427 194.259 295.076 189.68 294.868 188.79C294.661 187.9 294.025 190.415 293.571 190.474C293.117 190.533 293.236 188.269 293.219 187.444C293.203 186.618 295.413 184.586 296.184 182.829C296.955 181.073 299.519 183.152 299.519 183.152Z" fill="#FFB27D"/>
<path d="M238.106 137.007L236.957 134.84C236.957 134.84 237.528 130.973 232.695 128.534C232.695 128.534 230.926 127.815 229.927 129.257C229 130.587 231.68 130.348 231.537 132.623C231.394 134.899 232.464 136.232 233.974 136.974L235.215 138.413L238.106 137.007Z" fill="#FFB27D"/>
<path d="M283.845 131.822C283.845 131.822 279.687 152.239 256.816 158.91C249.675 160.992 233.457 137.466 233.457 137.466C233.457 137.466 234.026 135.298 237.6 135.796C237.6 135.796 253.392 146.26 255.388 147.397C257.152 148.405 268.755 134.43 274.043 132.176C279.331 129.923 283.845 131.822 283.845 131.822Z" fill="#E58638"/>
<path d="M222.978 127.801L222.329 132.028L243.569 135.292L244.217 131.065L222.978 127.801Z" fill="#C65447"/>
<path d="M217.72 129.161L222.334 132.032L222.982 127.807L217.72 129.161Z" fill="#FFB27D"/>
<path d="M246.477 132.853L246.272 134.189C246.242 134.384 246.174 134.572 246.071 134.741C245.969 134.91 245.834 135.057 245.675 135.174C245.515 135.291 245.334 135.376 245.142 135.423C244.95 135.47 244.751 135.478 244.556 135.448L243.574 135.298L244.222 131.071L245.291 131.236C245.663 131.293 245.997 131.496 246.219 131.799C246.441 132.102 246.534 132.481 246.477 132.853Z" fill="#FFB27D"/>
<path d="M311.15 260.171C311.15 260.171 313.988 262.768 313.434 264.606C312.88 266.443 310.32 267.673 309.973 269.924C309.627 272.176 308.244 273.403 306.997 273.403H301.059C301.059 273.403 300.142 271.82 302.356 271.341C304.57 270.863 305.404 268.22 305.267 265.765C305.13 263.309 305.474 260.036 305.474 260.036L310.179 258.944L311.15 260.171Z" fill="#233862"/>
<path d="M276.341 266.876C276.341 266.876 276.85 272.773 275.6 273.387L259.664 273.353C259.664 273.353 259.664 271.512 262.223 271.104C264.782 270.696 269.283 269.194 270.045 265.852C270.806 262.51 276.341 266.876 276.341 266.876Z" fill="#233862"/>
<path d="M262.881 183.558C262.881 183.558 263.722 193.897 264.71 206.325C266.053 223.201 267.675 243.944 267.828 247.866C268.104 254.687 269.213 265.6 269.213 265.6C269.213 265.6 271.842 268.196 277.102 267.1C277.102 267.1 281.79 251.522 283.13 235.042L283.191 234.228C284.438 217.45 286.374 182.116 286.374 182.116L262.881 183.558Z" fill="#9697E7"/>
<path d="M262.881 183.558C262.881 183.558 263.722 193.897 264.71 206.325L283.13 235.048L283.191 234.234C284.438 217.456 286.374 182.121 286.374 182.121L262.881 183.558Z" fill="#7273D5"/>
<path d="M266.72 184.786C266.72 184.786 281.877 222.229 291.842 239.825C301.807 257.421 304.931 262.332 304.931 262.332C304.931 262.332 310.64 260.08 311.159 258.547C311.159 258.547 307.35 224.577 300.675 216.295C296.905 211.616 292.474 197.564 292.267 192.662C292.059 187.761 290.918 178.034 290.918 178.034L266.72 184.786Z" fill="#9697E7"/>
<path d="M286.662 127.084C286.662 127.084 276.408 132.035 270.495 130.198C271.62 128.891 272.977 127.805 274.497 126.993C274.292 125.806 274.127 124.767 274.041 123.901C273.901 122.856 273.818 121.803 273.793 120.749L277.749 117.635L281.499 114.655C281.214 123.028 286.662 127.084 286.662 127.084Z" fill="#FFB27D"/>
<path d="M292.065 179.951C292.089 180.578 290.747 181.296 290.156 181.565C285.767 183.492 281.675 184.836 277.036 185.285C271.557 185.841 265.077 184.612 262.848 184.658C262.62 184.654 262.402 184.566 262.234 184.411C262.075 184.298 261.96 177.689 262.075 169.375C262.075 169.039 262.075 168.703 262.097 168.366V168.255C262.144 165.006 262.257 161.599 262.416 158.194C262.735 150.709 263.326 143.493 264.326 139.506C265.531 134.799 268.258 131.685 270.738 129.421L272.776 127.629C274.814 128.032 276.984 127.92 279.142 126.867C281.509 125.724 284.054 124.491 284.464 124.805C287.557 127.067 289.652 132.154 290.764 138.652C291.425 142.727 291.735 146.85 291.69 150.978C291.69 152.591 291.646 154.249 291.553 155.885C291.009 164.759 291.553 172.466 291.872 176.927C291.974 178.219 292.042 179.234 292.065 179.951Z" fill="#EE9849"/>
<path d="M291.883 179.543C255.975 179.473 285.261 140.544 285.261 140.544L291.079 138.652C291.559 143.025 291.783 147.421 291.752 151.82C291.752 153.544 291.72 155.315 291.653 157.064C291.259 166.545 291.653 174.779 291.883 179.543Z" fill="#E58638"/>
<path d="M281.568 117.85C281.568 117.85 278.974 122.579 274.041 123.901C273.901 122.856 273.818 121.803 273.793 120.749L277.749 117.635L281.568 117.85Z" fill="#ED985F"/>
<path d="M271.988 120.604C271.988 120.604 281.77 122.212 282.696 116.187C283.623 110.161 285.496 106.32 279.289 105.044C273.081 103.769 271.506 105.883 270.711 107.826C269.917 109.77 269.466 120.033 271.988 120.604Z" fill="#FFB27D"/>
<path d="M286.245 104.323C286.334 104.221 286.537 104.138 286.986 104.113C286.726 103.966 286.434 103.883 286.135 103.874C286.039 103.24 285.702 102.116 284.612 101.834C284.79 101.939 284.941 102.082 285.056 102.253C285.17 102.424 285.245 102.619 285.274 102.823C284.01 101.525 281.303 100.577 273.806 101.17C263.926 101.951 267.182 108.282 268.46 109.037C269.739 109.792 272.961 107.722 275.344 107.912C277.727 108.101 278.179 111.548 278.989 112.021C279.798 112.494 279.48 111.65 280.573 111.163C281.666 110.675 281.77 112.483 281.455 113.663C281.14 114.842 282.643 116.398 282.643 116.398L284.16 114.76C285.68 113.123 287.112 106.189 286.421 104.711C286.367 104.594 286.308 104.457 286.245 104.323Z" fill="#2C3A64"/>
<path d="M284.468 124.754C284.468 124.754 290.657 127.688 293.625 132.199C298.228 139.194 303.564 164.688 303.662 167.049C303.76 169.41 299.771 186.079 299.771 186.079C299.771 186.079 295.721 185.812 294.676 183.766C294.676 183.766 295.485 166.639 294.974 165.54C294.462 164.44 278.088 142.567 279.93 137.907C281.772 133.246 284.468 124.754 284.468 124.754Z" fill="#EE9849"/>
<path d="M236.929 134.736C236.929 134.736 237.264 133.406 236.344 132.807C235.423 132.208 234.572 130.581 234.183 130.802C233.377 131.258 234.624 132.679 234.396 134.448C234.324 135.069 235.765 136.694 236.929 134.736Z" fill="#FFB27D"/>
<path d="M86.5365 260.757C86.5365 260.757 71.9985 223.496 61.8018 229.429C51.6052 235.361 86.5365 260.757 86.5365 260.757Z" fill="#A8D29F"/>
<path d="M79.3491 260.757C79.3491 260.757 60.1417 244.143 51.3699 247.219C42.5982 250.296 79.3491 260.757 79.3491 260.757Z" fill="#A8D29F"/>
<path d="M282.722 266.124C282.722 266.124 287.147 250.721 292.341 252.538C297.535 254.355 282.722 266.124 282.722 266.124Z" fill="#A8D29F"/>
<path d="M286.76 265.282C286.76 265.282 298.063 257.864 300.544 260.155C303.025 262.445 286.76 265.282 286.76 265.282Z" fill="#A8D29F"/>
<path d="M248.147 232.301H160.009C159.724 232.3 159.452 232.187 159.251 231.986C159.05 231.785 158.937 231.512 158.936 231.228C158.937 230.943 159.05 230.67 159.251 230.469C159.452 230.268 159.724 230.155 160.009 230.154H248.147C248.431 230.155 248.703 230.268 248.904 230.469C249.105 230.67 249.219 230.943 249.219 231.228C249.219 231.512 249.105 231.785 248.904 231.986C248.703 232.187 248.431 232.3 248.147 232.301Z" fill="#D2E4FD"/>
<path d="M248.147 236.598H160.009C159.724 236.597 159.452 236.484 159.251 236.283C159.05 236.082 158.937 235.809 158.936 235.524C158.937 235.24 159.05 234.967 159.251 234.766C159.452 234.565 159.724 234.452 160.009 234.451H248.147C248.431 234.452 248.703 234.565 248.904 234.766C249.105 234.967 249.219 235.24 249.219 235.524C249.219 235.809 249.105 236.082 248.904 236.283C248.703 236.484 248.431 236.597 248.147 236.598Z" fill="#D2E4FD"/>
<path d="M248.147 241.361H160.009C159.724 241.36 159.452 241.246 159.251 241.045C159.05 240.844 158.937 240.571 158.936 240.287C158.936 240.002 159.049 239.729 159.251 239.528C159.452 239.327 159.724 239.214 160.009 239.213H248.147C248.431 239.214 248.703 239.328 248.904 239.529C249.105 239.73 249.219 240.002 249.219 240.287C249.219 240.571 249.105 240.844 248.904 241.045C248.703 241.246 248.431 241.36 248.147 241.361Z" fill="#D2E4FD"/>
<path d="M236.577 243.974H159.936C159.384 243.974 158.936 244.422 158.936 244.975V245.12C158.936 245.673 159.384 246.121 159.936 246.121H236.577C237.13 246.121 237.578 245.673 237.578 245.12V244.975C237.578 244.422 237.13 243.974 236.577 243.974Z" fill="#D2E4FD"/>
<defs>
<filter id="filter0_bdii_141:2" x="-33" y="76" width="441" height="264" filterUnits="userSpaceOnUse" color-interpolation-filters="sRGB">
<feFlood flood-opacity="0" result="BackgroundImageFix"/>
<feGaussianBlur in="BackgroundImage" stdDeviation="5"/>
<feComposite in2="SourceAlpha" operator="in" result="effect1_backgroundBlur_141:2"/>
<feColorMatrix in="SourceAlpha" type="matrix" values="0 0 0 0 0 0 0 0 0 0 0 0 0 0 0 0 0 0 127 0" result="hardAlpha"/>
<feOffset dy="14"/>
<feGaussianBlur stdDeviation="26.5"/>
<feColorMatrix type="matrix" values="0 0 0 0 0.231005 0 0 0 0 0.220781 0 0 0 0 0.3375 0 0 0 0.15 0"/>
<feBlend mode="normal" in2="effect1_backgroundBlur_141:2" result="effect2_dropShadow_141:2"/>
<feBlend mode="normal" in="SourceGraphic" in2="effect2_dropShadow_141:2" result="shape"/>
<feColorMatrix in="SourceAlpha" type="matrix" values="0 0 0 0 0 0 0 0 0 0 0 0 0 0 0 0 0 0 127 0" result="hardAlpha"/>
<feOffset dy="5"/>
<feGaussianBlur stdDeviation="7.5"/>
<feComposite in2="hardAlpha" operator="arithmetic" k2="-1" k3="1"/>
<feColorMatrix type="matrix" values="0 0 0 0 1 0 0 0 0 1 0 0 0 0 1 0 0 0 0.29 0"/>
<feBlend mode="normal" in2="shape" result="effect3_innerShadow_141:2"/>
<feColorMatrix in="SourceAlpha" type="matrix" values="0 0 0 0 0 0 0 0 0 0 0 0 0 0 0 0 0 0 127 0" result="hardAlpha"/>
<feOffset dy="-5"/>
<feGaussianBlur stdDeviation="9"/>
<feComposite in2="hardAlpha" operator="arithmetic" k2="-1" k3="1"/>
<feColorMatrix type="matrix" values="0 0 0 0 1 0 0 0 0 1 0 0 0 0 1 0 0 0 0.25 0"/>
<feBlend mode="normal" in2="effect3_innerShadow_141:2" result="effect4_innerShadow_141:2"/>
</filter>
</defs>
</svg>
