<svg width="12" height="17" viewBox="0 0 12 17" fill="none" xmlns="http://www.w3.org/2000/svg">
<path d="M10.6043 6.38872H3.93834V4.4569C3.93834 3.03637 5.05078 1.88114 6.4187 1.88114C7.78662 1.88114 8.89906 3.03637 8.89906 4.4569C8.89906 4.81235 9.17624 5.10084 9.51915 5.10084C9.86206 5.10084 10.1392 4.81235 10.1392 4.4569C10.1392 2.3261 8.47058 0.593262 6.4187 0.593262C4.36682 0.593262 2.69816 2.3261 2.69816 4.4569V6.38872H2.23309C1.46418 6.38872 0.837891 7.03845 0.837891 7.83758V14.5989C0.837891 15.3981 1.46418 16.0478 2.23309 16.0478H10.6043C11.3732 16.0478 11.9995 15.3981 11.9995 14.5989V7.83758C11.9995 7.03845 11.3732 6.38872 10.6043 6.38872Z" fill="#F79056"/>
</svg>
