<svg width="11" height="24" viewBox="0 0 11 24" fill="none" xmlns="http://www.w3.org/2000/svg">
<path fill-rule="evenodd" clip-rule="evenodd" d="M4.4698 0.0679196C3.68022 0.231629 3.13949 0.532598 2.54242 1.14073C2.19573 1.4938 2.08537 1.64447 1.90339 2.01301C1.47075 2.88929 1.49953 2.3809 1.49953 9.14695V15.0935L1.30228 15.3184C0.0676706 16.726 -0.32111 18.6774 0.273733 20.4804C0.985113 22.6366 3.16474 24.1235 5.42121 23.9919C6.73134 23.9155 7.79613 23.4432 8.74741 22.5167C9.72685 21.5626 10.2505 20.3757 10.3038 18.9889C10.3569 17.6049 9.91217 16.3198 9.04137 15.3412L8.83443 15.1086L8.8218 9.06493L8.80918 3.02125L8.65598 2.57575C8.5717 2.33073 8.41687 1.98253 8.31189 1.80199C8.07599 1.3964 7.4655 0.771292 7.08967 0.550559C6.25976 0.0631364 5.32412 -0.109248 4.4698 0.0679196ZM5.69773 1.47518C6.3181 1.63847 6.91948 2.11117 7.1734 2.63517C7.45279 3.21164 7.44007 2.88577 7.44007 9.47606C7.44007 13.4783 7.45608 15.5551 7.48755 15.6388C7.51368 15.7082 7.66911 15.9113 7.83293 16.0901C8.62372 16.9531 8.96317 17.8557 8.91249 18.9605C8.88515 19.557 8.80435 19.8989 8.57439 20.3915C7.90937 21.8161 6.46782 22.6846 4.93595 22.5835C3.94258 22.5179 3.0805 22.1048 2.39738 21.3669C1.73121 20.6474 1.40086 19.7986 1.39951 18.8032C1.39803 17.7177 1.72977 16.9076 2.52478 16.0551C2.69107 15.8768 2.80872 15.7021 2.84056 15.5862C2.87611 15.4569 2.89142 13.5913 2.89156 9.36867C2.89184 3.48377 2.89412 3.32855 2.98397 3.03452C3.33729 1.87871 4.56044 1.17585 5.69773 1.47518ZM4.96263 9.0957C4.88912 9.11797 4.7775 9.18475 4.71457 9.24407C4.45987 9.48445 4.4698 9.32637 4.46961 13.1364L4.46947 16.6676L4.17453 16.8217C2.46816 17.7131 2.64132 20.2371 4.45202 20.8665C5.67475 21.2916 7.03305 20.5113 7.2961 19.2328C7.49084 18.2862 7.00576 17.2525 6.16847 16.8298L5.88532 16.6868L5.86211 13.1049C5.83928 9.582 5.83733 9.5208 5.74335 9.39062C5.64352 9.25228 5.29075 9.0443 5.16772 9.05124C5.12846 9.05345 5.03619 9.07347 4.96263 9.0957ZM5.56031 18.0944C5.7323 18.1919 5.89669 18.4319 5.93577 18.6424C5.98362 18.9001 5.91827 19.1153 5.7323 19.3123C5.39017 19.6748 4.91112 19.6747 4.58694 19.3122C4.39814 19.101 4.35679 18.9679 4.38937 18.6759C4.45184 18.1159 5.06302 17.8124 5.56031 18.0944Z" fill="#9697E7"/>
</svg>
