<svg width="42" height="40" viewBox="0 0 42 40" fill="none" xmlns="http://www.w3.org/2000/svg">
<path fill-rule="evenodd" clip-rule="evenodd" d="M6.29943 0.0466973C2.39361 0.465019 -0.569668 4.26724 0.0929857 8.01005C0.375039 9.60255 1.03516 10.8665 2.14689 11.9418C5.42247 15.1107 10.8451 14.5294 13.3587 10.7397C14.1873 9.49074 14.5022 8.27503 14.4266 6.61577C14.2417 2.55155 10.5761 -0.411231 6.29943 0.0466973ZM33.8247 0.0477482C32.4313 0.196886 30.9402 0.89999 29.7946 1.94816C25.457 5.91704 27.7074 12.8913 33.6528 13.9044C35.7822 14.2674 38.0713 13.5834 39.7564 12.0808C42.4956 9.63812 42.7617 5.41881 40.3614 2.48705C39.7422 1.73067 38.1033 0.617136 37.2286 0.358292C36.2161 0.0587895 34.8694 -0.0640613 33.8247 0.0477482Z" fill="black"/>
<path d="M2.60001 29C4.65715 32.9 12.0114 38 21.8857 38C31.76 38 38.0857 32.9 40.4 29" stroke="black" stroke-width="2.6" stroke-linecap="round"/>
</svg>
