<svg width="44" height="68" viewBox="0 0 44 68" fill="none" xmlns="http://www.w3.org/2000/svg">
<path fill-rule="evenodd" clip-rule="evenodd" d="M27.4583 0.192439C25.2211 0.656281 23.6891 1.50903 21.9974 3.23206C21.0151 4.23243 20.7024 4.65933 20.1868 5.70354C18.961 8.18632 19.0425 6.74589 19.0425 25.9164V42.7648L18.4837 43.4021C14.9856 47.3904 13.8841 52.9193 15.5694 58.0279C17.585 64.1369 23.7606 68.3498 30.154 67.9771C33.866 67.7607 36.8829 66.4225 39.5782 63.7972C42.3533 61.0941 43.837 57.7311 43.9879 53.8018C44.1385 49.8806 42.8783 46.2395 40.4111 43.4666L39.8247 42.8076L39.789 25.684L39.7532 8.56021L39.3191 7.29796C39.0803 6.60372 38.6417 5.61718 38.3442 5.10564C37.6758 3.95646 35.9461 2.18533 34.8813 1.55992C32.5298 0.178886 29.8789 -0.309537 27.4583 0.192439ZM30.9374 4.17968C32.6951 4.64232 34.3991 5.98163 35.1185 7.4663C35.9101 9.09965 35.8741 8.17635 35.8741 26.8488C35.8741 38.1886 35.9194 44.0728 36.0086 44.3098C36.0826 44.5065 36.523 45.0819 36.9872 45.5886C39.2277 48.0339 40.1895 50.591 40.0459 53.7215C39.9685 55.4115 39.7395 56.3802 39.088 57.776C37.2038 61.8124 33.1193 64.2731 28.779 63.9867C25.9645 63.8008 23.5219 62.6302 21.5865 60.5397C19.699 58.5009 18.763 56.096 18.7591 53.2758C18.7549 50.2003 19.6949 47.9048 21.9474 45.4896C22.4186 44.9844 22.7519 44.4893 22.8421 44.1609C22.9428 43.7944 22.9862 38.5085 22.9866 26.5446C22.9874 9.87068 22.9939 9.43089 23.2484 8.59781C24.2495 5.32301 27.7151 3.33158 30.9374 4.17968ZM1.21819 8.675C0.0377463 9.21113 -0.373574 10.7637 0.401202 11.7589C0.852104 12.338 1.38427 12.4798 3.10779 12.4798C4.51362 12.4798 4.71534 12.4495 5.11732 12.1782C5.99874 11.5834 6.28027 10.3747 5.72852 9.55539C5.13665 8.67673 4.85433 8.56379 3.15526 8.52659C2.07436 8.50294 1.50038 8.54692 1.21819 8.675ZM0.890632 17.4264C-0.358189 18.2694 -0.280738 19.9974 1.04133 20.7841C1.45922 21.0328 1.72419 21.0498 5.19293 21.0498C8.74649 21.0498 8.91336 21.0384 9.26932 20.7718C10.4527 19.8857 10.5548 18.5148 9.51114 17.5288L9.15952 17.1966L5.2525 17.158C1.35863 17.1194 1.3439 17.1202 0.890632 17.4264ZM1.07959 25.8236C0.11099 26.2497 -0.310456 27.7957 0.312442 28.6386C0.906412 29.4424 1.18597 29.5498 2.81271 29.598C4.12479 29.6371 4.38883 29.6073 4.88326 29.3655C6.34484 28.6505 6.39152 26.6025 4.96308 25.8665C4.39028 25.5713 1.72011 25.5419 1.07959 25.8236ZM28.8547 25.7711C28.6464 25.8343 28.3301 26.0235 28.1518 26.1915C27.4302 26.8726 27.4583 26.4247 27.4578 37.2199L27.4574 47.2248L26.6217 47.6614C21.787 50.1873 22.2776 57.3383 27.4079 59.1218C30.8723 60.3263 34.7208 58.1155 35.4662 54.4928C36.0179 51.811 34.6435 48.8821 32.2712 47.6844L31.4689 47.2793L31.4032 37.1306C31.3385 27.149 31.333 26.9756 31.0667 26.6067C30.7838 26.2148 29.7843 25.6255 29.4357 25.6452C29.3245 25.6514 29.0631 25.7082 28.8547 25.7711ZM1.08327 34.4056C-0.35214 35.1235 -0.355428 37.2205 1.07762 37.9077C1.4587 38.0904 2.07778 38.1234 5.12376 38.1231C9.07944 38.123 9.31455 38.0815 9.89419 37.2832C10.2846 36.7454 10.2737 35.5514 9.87328 34.9841C9.3068 34.1817 9.05919 34.1373 5.1498 34.1375C1.87383 34.1376 1.58059 34.1568 1.08327 34.4056ZM1.36994 42.772C0.126506 43.1704 -0.409473 44.8646 0.38516 45.8854C0.876825 46.5169 1.27052 46.6269 3.03968 46.6269C4.51625 46.6269 4.71284 46.5984 5.11732 46.3253C5.99874 45.7305 6.28027 44.5218 5.72852 43.7025C5.14178 42.8314 4.84867 42.7118 3.22127 42.6793C2.41257 42.6632 1.57941 42.7049 1.36994 42.772ZM30.5481 51.2675C31.0354 51.5438 31.5012 52.2237 31.6119 52.8202C31.7474 53.5503 31.5623 54.16 31.0354 54.7182C30.066 55.7453 28.7087 55.7451 27.7902 54.7179C27.2553 54.1196 27.1381 53.7423 27.2304 52.915C27.4074 51.3285 29.1391 50.4684 30.5481 51.2675Z" fill="#9697E7"/>
</svg>
