<svg width="334" height="50" viewBox="0 0 334 50" fill="none" xmlns="http://www.w3.org/2000/svg">
<defs>
<linearGradient id="paint0_linear_1:67" x1="-42" y1="25.0005" x2="360" y2="25.0012" gradientUnits="userSpaceOnUse">
<stop stop-color="#6357F0"/>
<stop offset="0.177778" stop-color="#9591CC"/>
<stop offset="0.347222" stop-color="#67CE72"/>
<stop offset="0.597222" stop-color="#B0D95F"/>
<stop offset="0.766667" stop-color="#F8E34D"/>
<stop offset="1" stop-color="#FF3458"/>
</linearGradient>
</defs>
    <path fill-rule="evenodd" clip-rule="evenodd" d="M0 2.5C0 1.11929 1.11929 0 2.5 0C3.88071 0 5 1.11929 5 2.5V47.5C5 48.8807 3.88071 50 2.5 50C1.11929 50 0 48.8807 0 47.5V2.5ZM22 20.5C22 19.6716 22.6716 19 23.5 19C24.3284 19 25 19.6716 25 20.5V48.5C25 49.3284 24.3284 50 23.5 50C22.6716 50 22 49.3284 22 48.5V20.5ZM105.5 19C104.672 19 104 19.6716 104 20.5V48.5C104 49.3284 104.672 50 105.5 50C106.328 50 107 49.3284 107 48.5V20.5C107 19.6716 106.328 19 105.5 19ZM186 20.5C186 19.6716 186.672 19 187.5 19C188.328 19 189 19.6716 189 20.5V48.5C189 49.3284 188.328 50 187.5 50C186.672 50 186 49.3284 186 48.5V20.5ZM269.5 19C268.672 19 268 19.6716 268 20.5V48.5C268 49.3284 268.672 50 269.5 50C270.328 50 271 49.3284 271 48.5V20.5C271 19.6716 270.328 19 269.5 19ZM62 20.5C62 19.6716 62.6716 19 63.5 19C64.3284 19 65 19.6716 65 20.5V48.5C65 49.3284 64.3284 50 63.5 50C62.6716 50 62 49.3284 62 48.5V20.5ZM145.5 19C144.672 19 144 19.6716 144 20.5V48.5C144 49.3284 144.672 50 145.5 50C146.328 50 147 49.3284 147 48.5V20.5C147 19.6716 146.328 19 145.5 19ZM226 20.5C226 19.6716 226.672 19 227.5 19C228.328 19 229 19.6716 229 20.5V48.5C229 49.3284 228.328 50 227.5 50C226.672 50 226 49.3284 226 48.5V20.5ZM309.5 19C308.672 19 308 19.6716 308 20.5V48.5C308 49.3284 308.672 50 309.5 50C310.328 50 311 49.3284 311 48.5V20.5C311 19.6716 310.328 19 309.5 19ZM42 20.5C42 19.6716 42.6716 19 43.5 19C44.3284 19 45 19.6716 45 20.5V48.5C45 49.3284 44.3284 50 43.5 50C42.6716 50 42 49.3284 42 48.5V20.5ZM125.5 19C124.672 19 124 19.6716 124 20.5V48.5C124 49.3284 124.672 50 125.5 50C126.328 50 127 49.3284 127 48.5V20.5C127 19.6716 126.328 19 125.5 19ZM206 20.5C206 19.6716 206.672 19 207.5 19C208.328 19 209 19.6716 209 20.5V48.5C209 49.3284 208.328 50 207.5 50C206.672 50 206 49.3284 206 48.5V20.5ZM289.5 19C288.672 19 288 19.6716 288 20.5V48.5C288 49.3284 288.672 50 289.5 50C290.328 50 291 49.3284 291 48.5V20.5C291 19.6716 290.328 19 289.5 19ZM164 2.5C164 1.11929 165.119 0 166.5 0C167.881 0 169 1.11929 169 2.5V47.5C169 48.8807 167.881 50 166.5 50C165.119 50 164 48.8807 164 47.5V2.5ZM84.5 0C83.1193 0 82 1.11929 82 2.5V47.5C82 48.8807 83.1193 50 84.5 50C85.8807 50 87 48.8807 87 47.5V2.5C87 1.11929 85.8807 0 84.5 0ZM246 2.5C246 1.11929 247.119 0 248.5 0C249.881 0 251 1.11929 251 2.5V47.5C251 48.8807 249.881 50 248.5 50C247.119 50 246 48.8807 246 47.5V2.5ZM331.5 0C330.119 0 329 1.11929 329 2.5V47.5C329 48.8807 330.119 50 331.5 50C332.881 50 334 48.8807 334 47.5V2.5C334 1.11929 332.881 0 331.5 0Z" fill="url(#paint0_linear_1:67)"/>
</svg>
